<?xml version="1.0" encoding="UTF-8" standalone="no"?>
<!-- Created with Inkscape (http://www.inkscape.org/) -->

<svg
   xmlns:dc="http://purl.org/dc/elements/1.1/"
   xmlns:cc="http://creativecommons.org/ns#"
   xmlns:rdf="http://www.w3.org/1999/02/22-rdf-syntax-ns#"
   xmlns:svg="http://www.w3.org/2000/svg"
   xmlns="http://www.w3.org/2000/svg"
   xmlns:xlink="http://www.w3.org/1999/xlink"
   xmlns:sodipodi="http://sodipodi.sourceforge.net/DTD/sodipodi-0.dtd"
   xmlns:inkscape="http://www.inkscape.org/namespaces/inkscape"
   width="86"
   height="86"
   id="svg2"
   version="1.1"
   inkscape:version="0.48.2 r9819"
   sodipodi:docname="double-shape1.svg"
   inkscape:export-filename="C:\Users\Stephan\Desktop\double-shape.png"
   inkscape:export-xdpi="90"
   inkscape:export-ydpi="90">
  <defs
     id="defs4">
    <linearGradient
       id="linearGradient3789-6">
      <stop
         style="stop-color:#ffe917;stop-opacity:1;"
         offset="0"
         id="stop3791-0" />
      <stop
         style="stop-color:#d8a213;stop-opacity:1;"
         offset="1"
         id="stop3793-4" />
    </linearGradient>
    <linearGradient
       inkscape:collect="always"
       xlink:href="#linearGradient3789-6"
       id="linearGradient3922"
       gradientUnits="userSpaceOnUse"
       spreadMethod="pad"
       x1="45"
       y1="10"
       x2="45"
       y2="80"
       gradientTransform="matrix(0.95555556,0,0,0.95555556,0,4)" />
    <linearGradient
       id="linearGradient3789-6-7">
      <stop
         style="stop-color:#0a75c2;stop-opacity:1;"
         offset="0"
         id="stop3791-0-4" />
      <stop
         style="stop-color:#064572;stop-opacity:1;"
         offset="1"
         id="stop3793-4-0" />
    </linearGradient>
    <linearGradient
       y2="80"
       x2="45"
       y1="10"
       x1="45"
       spreadMethod="reflect"
       gradientUnits="userSpaceOnUse"
       id="linearGradient3016"
       xlink:href="#linearGradient3789-6-7"
       inkscape:collect="always"
       gradientTransform="matrix(-1,0,0,-1,90,90)" />
    <linearGradient
       inkscape:collect="always"
       xlink:href="#linearGradient3789-6-1"
       id="linearGradient3776"
       x1="-10"
       y1="26.666666"
       x2="-10"
       y2="73.333336"
       gradientUnits="userSpaceOnUse"
       spreadMethod="reflect" />
    <linearGradient
       id="linearGradient3789-6-1">
      <stop
         style="stop-color:#0a75c2;stop-opacity:1;"
         offset="0"
         id="stop3791-0-7" />
      <stop
         style="stop-color:#064572;stop-opacity:1;"
         offset="1"
         id="stop3793-4-4" />
    </linearGradient>
    <linearGradient
       y2="73.333336"
       x2="-10"
       y1="26.666666"
       x1="-10"
       spreadMethod="pad"
       gradientUnits="userSpaceOnUse"
       id="linearGradient3003"
       xlink:href="#linearGradient3789-6"
       inkscape:collect="always" />
  </defs>
  <sodipodi:namedview
     id="base"
     pagecolor="#ffffff"
     bordercolor="#666666"
     borderopacity="1.0"
     inkscape:pageopacity="0.0"
     inkscape:pageshadow="2"
     inkscape:zoom="5.6568542"
     inkscape:cx="23.149888"
     inkscape:cy="60.243868"
     inkscape:document-units="px"
     inkscape:current-layer="layer2"
     showgrid="true"
     inkscape:window-width="1920"
     inkscape:window-height="1148"
     inkscape:window-x="-8"
     inkscape:window-y="-8"
     inkscape:window-maximized="1"
     inkscape:snap-bbox="true"
     inkscape:snap-global="true">
    <inkscape:grid
       type="xygrid"
       id="grid2985"
       empspacing="5"
       visible="false"
       enabled="true"
       snapvisiblegridlinesonly="true" />
  </sodipodi:namedview>
  <metadata
     id="metadata7">
    <rdf:RDF>
      <cc:Work
         rdf:about="">
        <dc:format>image/svg+xml</dc:format>
        <dc:type
           rdf:resource="http://purl.org/dc/dcmitype/StillImage" />
        <dc:title></dc:title>
      </cc:Work>
    </rdf:RDF>
  </metadata>
  <g
     inkscape:groupmode="layer"
     id="layer2"
     inkscape:label="Ebene"
     style="display:inline"
     transform="translate(0,-4)">
    <path
       style="fill:url(#linearGradient3922);fill-opacity:1.0;stroke:none;display:inline"
       d="M 43,4 C 19.251756,4 0,23.251756 0,47 L 0,87.790278 C 0,89.01865 0.98134982,90 2.2097222,90 L 43,90 c 0.742132,0 1.476822,-0.02257 2.209722,-0.05972 C 67.929626,88.788603 86,70.006112 86,47 L 86,6.2097222 C 86,4.9813498 85.01865,4 83.790278,4 L 43,4 z"
       id="rect3059"
       inkscape:connector-curvature="0" />
    <path
       style="fill:#8c6e00"
       inkscape:connector-curvature="0"
       d="M 69.913226,48.831997 77.496,46.461987 69.913226,44.091448 c -0.279012,-3.20599 -1.116047,-6.250366 -2.416338,-9.037315 l 5.378064,-5.839227 -7.751233,1.738285 c -1.804624,-2.569003 -4.044082,-4.808462 -6.613085,-6.613085 l 1.739342,-7.752818 -5.840274,5.378592 c -2.786949,-1.30029 -5.831853,-2.137326 -9.036797,-2.416338 l -2.371067,-7.583831 -2.370539,7.583831 c -3.205461,0.279012 -6.250365,1.116048 -9.036797,2.416338 l -5.840273,-5.378592 1.738813,7.752818 c -2.568474,1.804095 -4.807404,4.042497 -6.611499,6.610982 l -7.753347,-1.738813 5.378593,5.840802 c -1.300291,2.786949 -2.137327,5.831325 -2.416339,9.036797 L 8.5050455,46.46093 16.09045,48.831997 c 0.279012,3.204944 1.116048,6.248792 2.41581,9.03574 l -5.379649,5.841331 7.754393,-1.739342 c 1.804095,2.569003 4.043025,4.807405 6.611499,6.612028 l -1.739341,7.75229 5.840273,-5.378064 c 2.786421,1.30029 5.831325,2.137326 9.036797,2.416338 l 2.37056,7.583831 2.370011,-7.583831 c 3.205989,-0.279012 6.250894,-1.116048 9.037843,-2.416338 l 5.840273,5.37912 -1.739341,-7.75229 c 2.570059,-1.804623 4.809517,-4.044081 6.614141,-6.614141 l 7.751233,1.739342 -5.378064,-5.839228 c 1.300301,-2.786949 2.137337,-5.830797 2.416338,-9.036786 z M 42.934465,67.956346 c -11.909026,0 -21.5628,-9.653773 -21.5628,-21.5628 0,-11.909026 9.653774,-21.5628 21.5628,-21.5628 11.909027,0 21.5628,9.653774 21.5628,21.5628 0,11.909027 -9.653773,21.5628 -21.5628,21.5628 z"
       id="path70" />
    <path
       d="m 69.91218,49.910137 7.582775,-2.37001 -7.582775,-2.370539 c -0.279012,-3.20599 -1.116047,-6.250366 -2.416338,-9.037315 l 5.378064,-5.839227 -7.751233,1.738285 C 63.31805,29.462328 61.078591,27.222869 58.509588,25.418246 l 1.739342,-7.752818 -5.840274,5.378592 c -2.786948,-1.30029 -5.831853,-2.137326 -9.036797,-2.416338 l -2.371067,-7.583831 -2.370538,7.583831 c -3.205461,0.279012 -6.250366,1.116048 -9.036797,2.416338 l -5.840274,-5.378592 1.738814,7.752818 c -2.568475,1.804095 -4.807405,4.042497 -6.6115,6.610982 l -7.753347,-1.738813 5.378593,5.840802 c -1.300291,2.786949 -2.137327,5.831325 -2.416338,9.036797 l -7.5854053,2.371056 7.5854053,2.371067 c 0.279011,3.204944 1.116047,6.248792 2.415809,9.03574 l -5.379649,5.841331 7.754393,-1.739342 c 1.804095,2.569003 4.043025,4.807405 6.611499,6.612028 l -1.739341,7.75229 5.840273,-5.378064 c 2.786421,1.30029 5.831325,2.137326 9.036797,2.416338 l 2.370539,7.583831 2.370011,-7.583831 c 3.205989,-0.279012 6.250894,-1.116048 9.037842,-2.416338 l 5.840274,5.37912 -1.739342,-7.75229 c 2.57006,-1.804623 4.809518,-4.044081 6.614141,-6.614141 l 7.751234,1.739342 -5.378064,-5.839228 c 1.300312,-2.786949 2.137347,-5.830797 2.416359,-9.036786 z M 42.933409,69.034486 c -11.909027,0 -21.5628,-9.653773 -21.5628,-21.5628 0,-11.909026 9.653773,-21.5628 21.5628,-21.5628 11.909026,0 21.5628,9.653774 21.5628,21.5628 0,11.909027 -9.653774,21.5628 -21.5628,21.5628 z"
       id="path72"
       inkscape:connector-curvature="0"
       style="fill:#ffffff" />
  </g>
</svg>
